<svg width="256" height="256" viewBox="0 0 256 256" fill="none" xmlns="http://www.w3.org/2000/svg">
  <defs>
    <linearGradient id="raydon-bg" x1="36" y1="24" x2="220" y2="232" gradientUnits="userSpaceOnUse">
      <stop stop-color="#12332E"/>
      <stop offset="1" stop-color="#0B1E35"/>
    </linearGradient>
    <linearGradient id="raydon-gold" x1="86" y1="44" x2="170" y2="212" gradientUnits="userSpaceOnUse">
      <stop stop-color="#FFD36B"/>
      <stop offset="1" stop-color="#F4B942"/>
    </linearGradient>
  </defs>

  <rect x="20" y="20" width="216" height="216" rx="54" fill="url(#raydon-bg)"/>
  <path d="M128 42L141 70H115L128 42Z" fill="url(#raydon-gold)"/>
  <path d="M169 53L171 81L146 70L169 53Z" fill="url(#raydon-gold)" opacity="0.95"/>
  <path d="M87 53L110 70L85 81L87 53Z" fill="url(#raydon-gold)" opacity="0.95"/>
  <circle cx="128" cy="126" r="72" stroke="url(#raydon-gold)" stroke-width="16"/>
  <path d="M74 177C92 160 111 152 128 152C145 152 164 160 182 177" stroke="#7FE1D5" stroke-width="10" stroke-linecap="round"/>
  <path d="M98 190L128 170L158 190" stroke="#EFF8F5" stroke-width="10" stroke-linecap="round" stroke-linejoin="round"/>
  <path d="M103 176V92H136C156 92 170 104 170 122C170 136 161 147 148 151L176 176H147L123 154H129C143 154 152 145 152 132C152 119 143 111 129 111H121V176H103Z" fill="white"/>
</svg>
